<?xml version="1.0" encoding="UTF-8"?>
<svg xmlns="http://www.w3.org/2000/svg" xmlns:xlink="http://www.w3.org/1999/xlink" width="309.1pt" height="309.1pt" viewBox="0 0 309.1 309.1" version="1.1">
<defs>
<clipPath id="clip1">
  <path d="M 0 0 L 309.101563 0 L 309.101563 309 L 0 309 Z M 0 0 "/>
</clipPath>
</defs>
<g id="surface1">
<path style=" stroke:none;fill-rule:evenodd;fill:rgb(89.0625%,0%,8.616638%);fill-opacity:1;" d="M 106.242188 57.621094 L 88.003906 24.585938 L 73.542969 32.664063 L 94.863281 70.632813 C 98.554688 76.863281 91.683594 81.664063 87.039063 77.824219 L 56.414063 45.644531 L 43.4375 58.101563 L 74.953125 89.097656 C 78.285156 93.8125 74.230469 99.175781 68.351563 97.03125 L 29.722656 75.230469 L 22.007813 88.203125 L 50.113281 106.152344 L 106.242188 106.152344 Z M 106.242188 57.621094 "/>
<path style=" stroke:none;fill-rule:evenodd;fill:rgb(89.0625%,0%,8.616638%);fill-opacity:1;" d="M 202.980469 57.621094 L 221.222656 24.585938 L 235.679688 32.664063 L 214.363281 70.632813 C 210.667969 76.863281 217.539063 81.664063 222.183594 77.824219 L 252.808594 45.644531 L 265.785156 58.101563 L 234.273438 89.097656 C 230.941406 93.8125 234.992188 99.175781 240.871094 97.03125 L 279.503906 75.230469 L 287.214844 88.203125 L 259.113281 106.152344 L 202.980469 106.152344 Z M 202.980469 57.621094 "/>
<path style=" stroke:none;fill-rule:evenodd;fill:rgb(89.0625%,0%,8.616638%);fill-opacity:1;" d="M 202.980469 251.410156 L 221.222656 284.441406 L 235.679688 276.359375 L 214.363281 238.394531 C 210.667969 232.164063 217.539063 227.359375 222.183594 231.203125 L 252.808594 263.382813 L 265.785156 250.921875 L 234.273438 219.933594 C 230.941406 215.21875 234.992188 209.855469 240.871094 211.996094 L 279.503906 233.792969 L 287.214844 220.820313 L 259.113281 202.878906 L 202.980469 202.878906 Z M 202.980469 251.410156 "/>
<path style=" stroke:none;fill-rule:evenodd;fill:rgb(89.0625%,0%,8.616638%);fill-opacity:1;" d="M 106.242188 251.410156 L 88.003906 284.441406 L 73.542969 276.359375 L 94.863281 238.394531 C 98.554688 232.164063 91.683594 227.359375 87.039063 231.203125 L 56.414063 263.382813 L 43.4375 250.921875 L 74.953125 219.933594 C 78.285156 215.21875 74.230469 209.855469 68.351563 211.996094 L 29.722656 233.792969 L 22.007813 220.820313 L 50.113281 202.878906 L 106.242188 202.878906 Z M 106.242188 251.410156 "/>
<g clip-path="url(#clip1)" clip-rule="nonzero">
<path style=" stroke:none;fill-rule:evenodd;fill:rgb(10.594177%,9.812927%,9.423828%);fill-opacity:1;" d="M 106.339844 0.0859375 L 202.882813 0.0859375 L 202.882813 106.234375 L 309.027344 106.234375 L 309.027344 202.777344 L 202.882813 202.777344 L 202.882813 308.921875 L 106.339844 308.921875 L 106.339844 202.777344 L 0.191406 202.777344 L 0.191406 106.234375 L 106.339844 106.234375 Z M 106.339844 0.0859375 "/>
</g>
<path style="fill:none;stroke-width:2;stroke-linecap:butt;stroke-linejoin:miter;stroke:rgb(0%,0%,0%);stroke-opacity:1;stroke-miterlimit:4;" d="M 1063.398438 3090.140625 L 2028.828125 3090.140625 L 2028.828125 2028.65625 L 3090.273438 2028.65625 L 3090.273438 1063.226563 L 2028.828125 1063.226563 L 2028.828125 1.78125 L 1063.398438 1.78125 L 1063.398438 1063.226563 L 1.914063 1063.226563 L 1.914063 2028.65625 L 1063.398438 2028.65625 Z M 1063.398438 3090.140625 " transform="matrix(0.1,0,0,-0.1,0,309.1)"/>
<path style=" stroke:none;fill-rule:evenodd;fill:rgb(100%,100%,100%);fill-opacity:1;" d="M 15.617188 124.839844 L 15.617188 184.171875 L 33.074219 184.171875 L 33.074219 152.085938 L 48.066406 172.140625 L 63.0625 152.203125 L 63.0625 184.171875 L 82.53125 184.171875 L 82.53125 179.101563 L 67.425781 179.101563 L 67.425781 175.0625 L 82.53125 144.675781 L 82.53125 124.839844 L 63.0625 124.839844 L 48.066406 147.488281 L 33.074219 124.839844 Z M 15.617188 124.839844 "/>
<path style=" stroke:none;fill-rule:evenodd;fill:rgb(100%,100%,100%);fill-opacity:1;" d="M 135.667969 174.371094 L 119.210938 174.371094 L 114.773438 166.09375 L 91.894531 166.09375 L 87.789063 174.371094 L 71.742188 174.371094 L 94.550781 129.347656 L 112.875 129.347656 Z M 111.089844 157.011719 L 103.492188 140.867188 L 95.910156 157.011719 Z M 111.089844 157.011719 "/>
<path style=" stroke:none;fill-rule:evenodd;fill:rgb(100%,100%,100%);fill-opacity:1;" d="M 183.128906 174.371094 L 166.417969 174.371094 L 142.273438 150.035156 L 142.273438 174.371094 L 140.96875 174.371094 L 127.226563 147.230469 L 127.226563 129.347656 L 142.273438 129.347656 L 166.417969 153.304688 L 166.417969 129.347656 L 183.128906 129.347656 Z M 183.128906 174.371094 "/>
<path style=" stroke:none;fill-rule:evenodd;fill:rgb(100%,100%,100%);fill-opacity:1;" d="M 222.359375 170.757813 C 217.613281 172.828125 213.179688 174.371094 207.976563 174.371094 C 201.777344 174.371094 191.582031 173.648438 187.117188 170.296875 L 187.117188 135.738281 C 187.21875 135.621094 187.320313 135.507813 187.429688 135.390625 C 194.898438 127.945313 213.15625 128.039063 222.359375 132.085938 L 222.359375 142.414063 C 218.289063 140.390625 214.082031 138.257813 209.4375 138.257813 C 186.800781 136.691406 188.578125 170.273438 211.972656 163.191406 L 211.972656 157.238281 L 205.515625 157.238281 L 205.515625 149.019531 L 222.359375 149.019531 Z M 222.359375 170.757813 "/>
<path style=" stroke:none;fill-rule:evenodd;fill:rgb(100%,100%,100%);fill-opacity:1;" d="M 293.601563 184.15625 L 273.035156 184.15625 L 267.488281 173.246094 L 238.886719 173.246094 L 233.75 184.15625 L 213.695313 184.15625 L 216.632813 178.179688 C 219.5 177.503906 223.671875 176.0625 226.121094 173.78125 L 226.121094 158.300781 L 242.207031 124.839844 L 265.109375 124.839844 Z M 262.882813 161.28125 L 253.382813 140.015625 L 243.902344 161.28125 Z M 262.882813 161.28125 "/>
<path style=" stroke:none;fill-rule:evenodd;fill:rgb(100%,100%,100%);fill-opacity:1;" d="M 145.535156 96.691406 C 143.039063 94.882813 140.875 94.003906 140.304688 91.222656 C 141.257813 90.863281 141.257813 90.863281 146.726563 90.390625 C 151.410156 88.605469 155.308594 87.132813 159.804688 84.800781 C 160.824219 82.039063 159.113281 80.164063 157.542969 78.382813 C 157.664063 76.835938 157.664063 76.835938 157.828125 76.644531 C 160.730469 76.644531 163.65625 77.550781 166.9375 77.550781 C 170.265625 76.027344 171.808594 72.914063 173.355469 69.820313 C 175.378906 69.011719 174.757813 67.394531 173.878906 66.183594 C 170.121094 66.183594 167.816406 67.300781 164.558594 68.746094 C 159.445313 69.703125 155.164063 70.441406 150.292969 68.988281 C 148.414063 67.539063 144.488281 62.117188 145.464844 60.238281 C 148.625 59.335938 153.265625 61.570313 156.710938 62.328125 C 160.945313 62.472656 165.722656 62.972656 170.027344 61.855469 C 173.523438 60.121094 176.804688 59.859375 180.488281 58.527344 C 183.296875 58.527344 190.070313 62.328125 189.167969 66.253906 C 188.480469 67.136719 186.71875 68.371094 186.433594 69.34375 C 186.265625 69.34375 186.101563 69.34375 185.957031 69.34375 C 185.957031 69.488281 185.957031 69.65625 185.957031 69.820313 C 185.792969 69.820313 185.625 69.820313 185.484375 69.820313 C 183.554688 72.53125 175.351563 78.828125 178.992188 82.472656 C 183.582031 83.96875 184.648438 84.5625 186.433594 85.15625 C 191.59375 85.800781 194.683594 86.726563 197.609375 91.578125 C 197.609375 93.953125 197.609375 93.953125 197.371094 94.550781 C 192.972656 96.164063 191.972656 97.425781 188.335938 95.144531 C 185.671875 94.144531 184.554688 92.789063 182.152344 91.816406 C 178.277344 89.078125 175.019531 85.730469 170.265625 87.414063 C 165.4375 94.265625 153.097656 96.496094 145.535156 96.691406 Z M 118.90625 91.222656 C 116.691406 90.152344 114.742188 89.484375 113.910156 87.414063 C 110.511719 85.539063 111.4375 84.230469 113.125 81.402344 C 116.21875 79.546875 120.046875 78.261719 123.542969 76.953125 C 124.042969 76.148438 124.5625 75.363281 125.085938 74.578125 C 125.230469 74.578125 125.394531 74.578125 125.5625 74.578125 C 126.488281 73.269531 129.105469 69.703125 130.316406 69.109375 C 130.367188 68.914063 130.414063 68.726563 130.484375 68.5625 C 133.335938 67.753906 135.050781 58.527344 138.402344 56.863281 C 138.785156 56.886719 139.1875 56.933594 139.589844 56.980469 C 139.757813 64.757813 136.570313 70.675781 132.695313 77.429688 C 131.246094 78.074219 130.722656 80.546875 130.082031 82.066406 C 129.128906 83.019531 129.128906 83.019531 128.890625 83.613281 C 128.726563 83.613281 128.558594 83.613281 128.414063 83.613281 C 128.082031 84.5625 126.324219 85.941406 125.5625 87.179688 C 125.394531 87.179688 125.230469 87.179688 125.085938 87.179688 C 125.085938 87.320313 125.085938 87.488281 125.085938 87.65625 C 124.066406 88.296875 123.707031 88.890625 123.183594 89.078125 C 123.183594 89.222656 123.183594 89.390625 123.183594 89.558594 C 121.566406 90.414063 120.6875 91.054688 118.90625 91.222656 Z M 158.375 56.742188 C 157.902344 56.507813 157.425781 56.269531 156.949219 56.03125 C 156.949219 55.863281 156.949219 55.699219 156.949219 55.554688 C 154.667969 54.652344 153.738281 52.84375 155.214844 51.203125 C 159.304688 50.109375 159.042969 50.015625 159.207031 45.804688 C 158.113281 42.496094 153.167969 41.40625 150.292969 41.40625 C 147.628906 42.429688 149.222656 45.019531 149.222656 47.46875 C 147.558594 51.394531 144.132813 46.710938 142.847656 45.617188 C 141.78125 43.453125 141.042969 36.789063 141.730469 34.867188 C 142.445313 34.820313 143.160156 34.773438 143.871094 34.746094 C 150.03125 38.171875 150.816406 40.644531 158.136719 37.128906 C 162.609375 36.769531 165.390625 37.484375 165.390625 32.253906 C 164.082031 30.203125 161.703125 31.183594 159.96875 29.921875 C 159.921875 28.210938 159.921875 28.210938 160.207031 27.664063 C 163.941406 26.710938 169.933594 28.019531 172.285156 24.644531 C 173.238281 20.121094 173.949219 18.222656 173.949219 17.273438 C 172.691406 14.441406 170.714844 13.703125 168.125 14.777344 C 164.25 15.371094 157.566406 14.609375 160.039063 20.121094 C 161.609375 20.648438 163.296875 19.390625 165.152344 19.054688 C 165.746094 19.175781 166.339844 19.289063 166.9375 19.414063 C 166.9375 19.839844 166.9375 20.269531 166.9375 20.71875 C 164.773438 22.003906 163.25 21.671875 160.992188 21.671875 C 158.375 22.621094 158.375 22.621094 157.304688 23.21875 C 154.191406 28.425781 152.90625 24.761719 151.125 21.316406 C 151.125 17.441406 151.101563 14.394531 149.695313 10.851563 C 149.695313 3.863281 156.734375 10.449219 160.277344 11.683594 C 164.179688 11.683594 166.886719 9.308594 170.976563 9.308594 C 171.808594 9.664063 173.710938 11.328125 175.140625 12.277344 C 181.605469 18.199219 178.683594 20.839844 175.613281 28.6875 C 174.519531 36.4375 180.179688 32.894531 184.105469 35.984375 C 185.507813 39.054688 186.078125 41.3125 186.078125 44.855469 C 183.84375 50.847656 184.675781 51.394531 178.113281 51.394531 C 176.351563 52.890625 174.832031 54.722656 173.117188 56.148438 C 168.195313 56.148438 163.15625 56.601563 158.375 56.742188 Z M 120.570313 53.175781 C 117.144531 51.679688 114.292969 48.445313 113.078125 45.210938 C 113.175781 44.902344 113.269531 44.59375 113.363281 44.308594 C 114.816406 43.976563 115.574219 44.308594 117.242188 44.734375 C 121.757813 44.757813 126.277344 44.808594 130.792969 44.855469 C 130.792969 44.996094 130.792969 45.164063 130.792969 45.328125 C 130.9375 45.328125 131.101563 45.328125 131.269531 45.328125 C 131.699219 49.371094 123.777344 52.488281 120.570313 53.175781 Z M 127.941406 23.21875 C 124.300781 21.148438 123.992188 19.152344 121.757813 15.964844 C 119.785156 13.992188 119.617188 14.230469 119.617188 11.683594 C 122.089844 10.210938 126.230469 11.703125 128.890625 12.753906 C 130.082031 15.746094 136.761719 18.84375 135.3125 22.742188 C 132.933594 23.480469 130.269531 23.164063 127.941406 23.21875 Z M 127.941406 23.21875 "/>
<path style=" stroke:none;fill-rule:evenodd;fill:rgb(100%,100%,100%);fill-opacity:1;" d="M 192.679688 288.953125 C 187.496094 285.246094 186.847656 282.761719 188.976563 276.835938 C 189.695313 270.84375 189.203125 265.210938 189.539063 259.445313 C 192.03125 258.210938 195.507813 260.921875 197.4375 262.855469 C 200.042969 268.0625 197.820313 275.242188 196.609375 280.871094 C 196.160156 285.363281 196.160156 285.363281 195.710938 287.832031 C 194.699219 289.113281 194.230469 288.820313 192.679688 288.953125 Z M 128.496094 294.789063 C 125.535156 293.980469 122.953125 292.679688 120.351563 291.46875 C 119.949219 290.007813 117.210938 289.667969 116.605469 288.058594 C 110.320313 285.273438 110.117188 282.402344 110.882813 276.164063 C 112.789063 270.890625 112.789063 270.890625 114.023438 268.308594 C 116.695313 259.0625 119.859375 250.824219 119.859375 241.152344 C 122.058594 237.855469 127.085938 244.746094 128.386719 246.765625 C 128.96875 250.265625 128.746094 253.765625 128.386719 257.535156 C 126.007813 262.519531 123.5625 267.835938 121.652344 273.019531 C 121.539063 275.109375 120.105469 283.253906 123.335938 284.464844 L 123.335938 284.914063 C 126.027344 286.261719 127.464844 285.429688 130.066406 283.90625 C 131.640625 283.589844 133.210938 283.296875 134.78125 283.007813 C 142.390625 280.316406 148.738281 279.976563 157 280.539063 C 161.171875 281.347656 165.371094 282.171875 169.566406 283.007813 C 172.304688 283.007813 179.933594 282.132813 181.953125 283.726563 C 182.066406 285.589844 181.257813 285.476563 179.664063 285.476563 C 173.738281 284.417969 166.515625 284.308594 160.8125 285.476563 C 157.539063 286.933594 154.507813 287.179688 151.164063 287.71875 C 145.214844 289.539063 139.179688 291.242188 133.660156 294.003906 C 131.863281 294.453125 131.863281 294.453125 128.496094 294.789063 Z M 168.894531 225.664063 C 165.144531 224.660156 161.578125 224.390625 158.121094 223.539063 C 154.148438 223.539063 146.988281 226.183594 144.09375 223.871094 C 142.589844 221.539063 138.550781 215.457031 143.535156 215.234375 C 145.394531 215.816406 147.257813 216.417969 149.144531 217.027344 C 155.921875 217.027344 163.058594 215.234375 170.015625 215.234375 C 172.238281 216.242188 174.210938 216.871094 174.953125 219.835938 L 175.402344 219.835938 C 177.914063 224.433594 176.546875 224.414063 172.035156 225.554688 C 170.980469 225.578125 169.925781 225.621094 168.894531 225.664063 Z M 148.917969 272.792969 C 147.863281 272.296875 146.808594 271.808594 145.777344 271.335938 C 142.390625 271.335938 139.359375 271.945313 138.148438 268.308594 L 137.699219 268.308594 C 137.585938 265.390625 137.8125 263.820313 137.8125 261.796875 C 136.777344 256.59375 136.800781 251.410156 136.464844 246.316406 C 135.65625 244.453125 134.667969 242.253906 137.136719 241.265625 C 137.921875 241.664063 138.707031 242.074219 139.492188 242.496094 C 141.132813 245.777344 143.601563 247.976563 145.484375 251.523438 C 147.863281 252.644531 150.648438 254.238281 152.621094 251.476563 C 153.453125 247.257813 149.90625 246.671875 146.898438 246.203125 C 144.339844 245.035156 144.746094 243.371094 144.878906 241.039063 C 146.878906 238.933594 151.410156 242.277344 153.296875 238.011719 C 153.386719 234.984375 152.511719 224.542969 158.613281 229.191406 C 158.859375 230.042969 161.621094 231.976563 162.722656 233.296875 C 164.136719 238.773438 164.359375 239.289063 170.015625 239.695313 C 171.765625 240.1875 172.394531 241.171875 174.054688 241.828125 L 174.054688 242.277344 C 175.402344 242.769531 178.140625 247.011719 179.328125 248.558594 C 179.328125 250.714844 178.632813 251.566406 177.308594 253.496094 C 176.476563 255.515625 175.648438 257.535156 174.839844 259.554688 C 174.144531 263.144531 172.503906 268.796875 168.894531 270.441406 C 165.144531 270.507813 161.398438 270.574219 157.671875 270.664063 C 154.441406 271.382813 152.128906 272.640625 148.917969 272.792969 Z M 167.996094 253.945313 C 164.382813 252.285156 164.898438 252.914063 164.742188 249.234375 C 165.816406 247.214844 168.265625 246.652344 170.464844 247.4375 C 171.273438 250.085938 170.914063 250.871094 169.566406 253.496094 C 169.027344 253.632813 168.511719 253.789063 167.996094 253.945313 Z M 147.574219 265.839844 C 145.933594 263.910156 146.519531 259.824219 147.28125 257.691406 C 150.109375 256.234375 150.085938 259.804688 150.9375 261.6875 C 151.835938 262.808594 151.835938 262.808594 152.398438 264.15625 C 151.320313 265.882813 149.4375 265.542969 147.574219 265.839844 Z M 164.40625 265.164063 C 162.117188 264.515625 160.722656 264.3125 161.644531 261.734375 C 163.867188 260.96875 165.03125 260.292969 167.546875 260.453125 C 167.882813 262.699219 167.882813 262.699219 167.769531 264.382813 C 166.492188 265.164063 165.707031 265.097656 164.40625 265.164063 Z M 164.40625 265.164063 "/>
</g>
</svg>
